HIERARCHY
ROOT Pelvis
{
	OFFSET 0.000000 0.941512 0.000000
	CHANNELS 6 Xposition Yposition Zposition Zrotation Yrotation Xrotation 
	JOINT Pelvis_L_Hip
	{
		OFFSET 0.000000 0.000000 0.000000
		CHANNELS 3 Zrotation Yrotation Xrotation
		JOINT L_Hip
		{
			OFFSET 0.062321 -0.080322 -0.016990
			CHANNELS 3 Zrotation Yrotation Xrotation
			JOINT L_Knee
			{
				OFFSET 0.093051 -0.381305 -0.029784
				CHANNELS 3 Zrotation Yrotation Xrotation
				JOINT L_Ankle
				{
					OFFSET -0.010371 -0.431000 -0.033614
					CHANNELS 3 Zrotation Yrotation Xrotation
					End Site #name: L_Foot
					{
						OFFSET 0.069299 -0.038670 0.119418
					}
				}
			}
		}
	}
	JOINT Pelvis_R_Hip
	{
		OFFSET 0.000000 0.000000 0.000000
		CHANNELS 3 Zrotation Yrotation Xrotation
		JOINT R_Hip
		{
			OFFSET -0.055334 -0.094904 -0.002373
			CHANNELS 3 Zrotation Yrotation Xrotation
			JOINT R_Knee
			{
				OFFSET -0.064207 -0.384370 -0.019592
				CHANNELS 3 Zrotation Yrotation Xrotation
				JOINT R_Ankle
				{
					OFFSET 0.025418 -0.419734 -0.065953
					CHANNELS 3 Zrotation Yrotation Xrotation
					End Site #name: R_Foot
					{
						OFFSET -0.057233 -0.039888 0.132134
					}
				}
			}
		}
	}
	JOINT Pelvis_Spine1
	{
		OFFSET 0.000000 0.000000 0.000000
		CHANNELS 3 Zrotation Yrotation Xrotation
		JOINT Spine1
		{
			OFFSET -0.005562 0.124093 -0.043360
			CHANNELS 3 Zrotation Yrotation Xrotation
			JOINT Spine2
			{
				OFFSET 0.012244 0.139499 0.029894
				CHANNELS 3 Zrotation Yrotation Xrotation
				JOINT Spine3
				{
					OFFSET -0.002556 0.056561 0.009225
					CHANNELS 3 Zrotation Yrotation Xrotation
					JOINT Spine3_Neck
					{
						OFFSET 0.000000 0.000000 0.000000
						CHANNELS 3 Zrotation Yrotation Xrotation
						JOINT Neck
						{
							OFFSET -0.005205 0.217920 -0.024551
							CHANNELS 3 Zrotation Yrotation Xrotation
							End Site #name: Head
							{
								OFFSET 0.002365 0.091850 0.046637
							}
						}
					}
					JOINT Spine3_L_Collar
					{
						OFFSET 0.000000 0.000000 0.000000
						CHANNELS 3 Zrotation Yrotation Xrotation
						JOINT L_Collar
						{
							OFFSET 0.072225 0.116603 -0.009480
							CHANNELS 3 Zrotation Yrotation Xrotation
							JOINT L_Shoulder
							{
								OFFSET 0.115937 -0.058643 -0.021018
								CHANNELS 3 Zrotation Yrotation Xrotation
								JOINT L_Elbow
								{
									OFFSET 0.021994 -0.254722 -0.024492
									CHANNELS 3 Zrotation Yrotation Xrotation
									End Site #name: L_Wrist
									{
										OFFSET 0.048810 -0.240214 0.103329
									}
								}
							}
						}
					}
					JOINT Spine3_R_Collar
					{
						OFFSET 0.000000 0.000000 0.000000
						CHANNELS 3 Zrotation Yrotation Xrotation
						JOINT R_Collar
						{
							OFFSET -0.073372 0.120704 -0.024611
							CHANNELS 3 Zrotation Yrotation Xrotation
							JOINT R_Shoulder
							{
								OFFSET -0.108089 -0.054969 -0.020504
								CHANNELS 3 Zrotation Yrotation Xrotation
								JOINT R_Elbow
								{
									OFFSET -0.033684 -0.260739 0.009889
									CHANNELS 3 Zrotation Yrotation Xrotation
									End Site #name: R_Wrist
									{
										OFFSET -0.067980 -0.232763 0.118463
									}
								}
							}
						}
					}
				}
			}
		}
	}
}
MOTION
Frames: 5
Frame Time: 0.041667
0.000000 0.979213 0.000000 -0.120325 -6.028205 -7.842103 0.000000 0.000000 0.000000 0.472609 0.460449 1.967449 2.414654 0.583154 -15.340354 46.445036 57.138864 102.423050 0.000000 0.000000 0.000000 3.941092 -0.001329 -0.761940 -2.788566 -1.007539 -18.439957 -86.465143 -44.282892 134.200074 0.000000 0.000000 0.000000 9.272050 2.149549 -23.306667 -4.150376 0.288865 -4.900102 3.435061 3.652314 44.369628 0.000000 0.000000 0.000000 -7.356814 -0.528244 -89.327221 0.000000 0.000000 0.000000 18.288513 4.595766 6.846369 -20.282901 -4.535741 -32.377914 -2.868223 13.840077 72.133991 0.000000 0.000000 0.000000 -24.548822 -6.602429 10.369789 17.969402 7.005272 -28.312127 12.006931 -17.588727 63.977403 
0.000177 0.981430 -0.001725 -0.637676 -5.813284 -6.764381 0.000000 0.000000 0.000000 0.808407 0.162598 0.858236 2.854730 0.617025 -15.548094 46.568674 57.090545 103.032108 0.000000 0.000000 0.000000 4.228703 0.209248 -1.894723 -2.057981 -1.004821 -18.428013 -88.429645 -43.148698 136.562391 0.000000 0.000000 0.000000 10.301534 2.328182 -24.287112 -4.758379 0.453263 -3.776859 3.190661 3.572802 44.298744 0.000000 0.000000 0.000000 -6.673323 -0.323246 -88.899971 0.000000 0.000000 0.000000 19.432694 5.391322 7.671486 -20.475841 -4.308542 -31.275255 -0.596133 15.004691 80.828806 0.000000 0.000000 0.000000 -25.223771 -7.149069 10.957093 19.278356 6.899052 -26.807579 7.718880 -19.694948 72.580722 
0.001720 0.974702 -0.000024 -1.004200 -6.225751 -4.976077 0.000000 0.000000 0.000000 1.156147 -0.305441 -0.993475 3.031489 0.634568 -15.507222 57.871088 57.166551 113.846103 0.000000 0.000000 0.000000 4.430467 0.675728 -4.273101 -1.338015 -0.966340 -17.997223 -86.822199 -45.515494 131.895092 0.000000 0.000000 0.000000 11.186479 2.854285 -26.906677 -5.364342 0.792725 -0.865860 3.428799 3.845532 40.896524 0.000000 0.000000 0.000000 -6.743498 0.116919 -80.437932 0.000000 0.000000 0.000000 22.560004 5.578276 8.617194 -21.571407 -4.160211 -29.456364 2.321376 17.167765 98.446621 0.000000 0.000000 0.000000 -30.083260 -8.057659 13.232231 22.668453 7.872045 -26.744112 -0.347193 -22.569385 92.194630 
0.001840 0.975720 -0.002648 -0.860998 -6.195260 -4.452850 0.000000 0.000000 0.000000 0.760417 -0.444848 -1.654524 3.832043 0.704192 -15.851488 56.188806 57.149680 113.040541 0.000000 0.000000 0.000000 4.113129 0.856809 -5.173400 -0.793177 -0.960743 -17.965646 -89.692463 -45.164704 132.952112 0.000000 0.000000 0.000000 9.981755 2.581863 -25.806339 -3.357819 0.372268 -2.338430 2.400187 3.896286 41.564240 0.000000 0.000000 0.000000 -6.345987 0.241113 -80.823983 0.000000 0.000000 0.000000 23.875201 5.679236 8.995551 -21.758733 -3.766704 -27.988433 10.181551 15.383998 115.951511 0.000000 0.000000 0.000000 -31.202307 -8.136380 13.691596 23.497590 7.435682 -24.966130 -13.376980 -20.088951 109.004804 
0.001321 0.976876 -0.005328 -0.769494 -6.144159 -3.618975 0.000000 0.000000 0.000000 0.531092 -0.711058 -2.798603 4.550896 0.722228 -15.525530 53.965842 57.068934 112.303717 0.000000 0.000000 0.000000 3.911976 1.102777 -6.414139 -0.519517 -0.930958 -17.388153 -88.308270 -45.424702 132.294944 0.000000 0.000000 0.000000 8.822356 2.669290 -26.558976 -2.208719 0.289705 -1.032911 2.306553 3.838199 41.020607 0.000000 0.000000 0.000000 -6.432835 0.219137 -81.752679 0.000000 0.000000 0.000000 23.713531 5.028013 8.467934 -20.595709 -2.729968 -24.147857 11.925235 15.692331 126.270792 0.000000 0.000000 0.000000 -32.669441 -7.645455 13.805418 23.856935 6.278428 -21.157008 -19.818374 -17.629126 119.012828 
